<svg version="1" xmlns="http://www.w3.org/2000/svg" width="682.667" height="682.667" viewBox="0 0 512.000000 512.000000"><path d="M241.5 33.1c-39.8 5.8-73 38.3-80 78.6-8.8 50.2 22.6 97.3 73.3 110 10.4 2.6 35.2 2.4 45.5-.5 34-9.4 60.6-36.2 68.7-69.3 2.6-10.7 3.6-26.4 2.2-35.4-.9-5.5-1.7-7.5-3.7-9.3-3.3-2.8-6.5-2.8-10 0l-2.7 2.1.7 11.2c.4 7.2.3 14-.5 19.1-4.8 31.8-28.1 57.4-59.4 65.4-11.6 2.9-11.6 2.9-11.6-3v-5l10.4-6.9c10.8-7.3 13.6-10.1 13.6-13.6 0-1.2-1.6-6.8-3.5-12.4l-3.5-10.4 15.5-19.4c15.7-19.7 16.9-21.8 14.5-26.4-1.3-2.4-28-15.9-31.5-15.9-3.8 0-7.5 4.2-7.5 8.4s2.8 6.8 11.8 11c3.4 1.6 6.2 3.3 6.2 3.7 0 .4-5.8 8-13 17-10.4 13.1-13 16.9-13 19.4 0 1.7 1.3 7.1 3 12 1.6 4.9 2.9 8.9 2.7 9-.1.1-2.3 1.6-4.9 3.4l-4.7 3.1-5.1-1.9c-5.5-2.1-18.5-9.5-19.5-11.1-.3-.5.6-3.2 2-5.9 4.2-8.4 3.8-9.8-8.1-25.6l-10.5-13.9 10.6-10.6c9.4-9.5 10.5-10.9 10.5-14.1 0-4-1.5-5.6-20.8-22.4l-10.4-9 2.8-2.2c3.1-2.4 14-7.9 16.8-8.5 1.6-.2 2.7 2 7 14.9 2.8 8.3 6 16.1 7 17.2 1.3 1.4 3.1 2.1 5.6 2.1 4.7 0 6.1-1.6 18.9-20.8 5.6-8.4 10.8-15.2 11.6-15.2 2.3 0 12.5 4.5 19.6 8.6 8.1 4.8 18.9 15.1 24.1 23.1 5.1 8 11 10 15.2 5.4 3.4-3.7 3-7.2-1.5-14.1-4.9-7.4-18.2-21.1-25-25.7-20.3-13.8-45.4-19.7-69.4-16.2zM259 48.6c0 .7-8 12.4-8.4 12.4-.2 0-1.3-2.7-2.4-5.9-1.9-5.5-1.9-6-.4-6.4 2.5-.7 11.2-.8 11.2-.1zm-45.7 41.8l6.8 6-10.1 10.1c-13.3 13.4-13.3 12.6.5 30.7 5.8 7.5 10.7 14.3 11 15 .2.7-2.4 6.7-5.8 13.2l-6.2 12-6.1 2.2-6.1 2.3-3.6-4.8c-9.6-12.6-14.9-25.5-16.6-40.5-2.3-20.1 4-42.4 16.2-57.2l2.9-3.4 5.1 4.2c2.9 2.3 8.3 6.9 12 10.2z"/><path d="M50.5 146.5c-2.5 2.4-2.5 2.7-2.5 20V184h-8c-6.5 0-8-.3-8-1.5 0-.9-1.1-2.7-2.5-4-3.2-3.3-7.8-3.3-11 0l-2.5 2.4v262.2l2.5 2.4 2.4 2.5h88.5c95.6 0 96.3 0 109.6 5.4 9.6 3.9 18 9.9 26.4 18.7 10.1 10.6 11.1 10.6 21.2 0 8.4-8.8 16.8-14.8 26.4-18.7 13.3-5.4 14-5.4 109.6-5.4h88.5l2.4-2.5 2.5-2.4V180.9l-2.5-2.4c-3.2-3.3-7.8-3.3-11 0-1.4 1.3-2.5 3.1-2.5 4 0 1.2-1.5 1.5-8 1.5h-8v-17.5c0-17.3 0-17.6-2.5-20l-2.4-2.5h-44.4c-43.4 0-44.5 0-47.1 2.1-3.7 2.9-3.7 8.9 0 11.8 2.6 2 3.7 2.1 41.5 2.1H448v239.9l-72.7.4c-80.8.4-79.3.3-101.2 7.6-5.1 1.7-9.4 3.1-9.7 3.1-.2 0-.4-37.4-.4-83v-83.1l-2.5-2.4c-3.2-3.3-7.8-3.3-11 0l-2.5 2.4V328c0 45.6-.1 83-.3 83-.2 0-3.7-1.2-7.8-2.6-4.1-1.4-12.3-3.7-18.4-5.1l-11-2.6-73.2-.4-73.3-.4v-59l-2.5-2.4c-1.3-1.4-3.1-2.5-4-2.5-1.2 0-1.5-1.5-1.5-8s.3-8 1.5-8c.9 0 2.7-1.1 4-2.5l2.5-2.4V160h38.9c37.8 0 38.9-.1 41.5-2.1 3.7-2.9 3.7-8.9 0-11.8-2.6-2.1-3.7-2.1-47.1-2.1H52.9l-2.4 2.5z"/><path d="M148.2 185.3c-1.8.8-6.9 10.1-19.3 34.9-9.3 18.6-16.9 34.9-16.9 36.3 0 3.3 4.2 7.5 7.5 7.5 4.7 0 6.4-1.9 12-13l5.5-11h30l5.5 11c5.6 11.1 7.3 13 12 13 3.3 0 7.5-4.2 7.5-7.5 0-1.4-7.6-17.7-16.9-36.3-13.6-27.3-17.4-34-19.5-35-3.2-1.4-4.4-1.4-7.4.1zm7.6 32.2l3.2 6.5h-14l3.2-6.5c1.8-3.6 3.5-6.5 3.8-6.5.3 0 2 2.9 3.8 6.5zM346.5 210.5c-1.6 1.5-2.5 3.6-2.5 5.5s.9 4 2.5 5.5c2.3 2.4 2.9 2.5 15.5 2.5h13.2l-.6 2.7c-.3 1.6-.8 5.2-1.1 8l-.7 5.3h-11.9c-11.4 0-12.1.1-14.4 2.5-1.6 1.5-2.5 3.6-2.5 5.5s.9 4 2.5 5.5c2.3 2.4 3.1 2.5 13.5 2.5h11.1l-.5 3.2c-.8 4.4-2.6 18.7-2.6 19.9 0 .5-4.3.9-9.5.9-8.8 0-9.8.2-12 2.5-3.3 3.2-3.3 7.8 0 11l2.4 2.5h78.2l2.4-2.5c3.3-3.2 3.3-7.8 0-11-2-2.1-3.4-2.5-8-2.5H416v-17.5c0-17.3 0-17.6-2.5-20-2.3-2.4-3.1-2.5-13.5-2.5h-11.2l.6-2.8c.3-1.5.8-5.1 1.1-8l.7-5.2h17.9c17.8 0 18 0 20.4-2.5 1.6-1.5 2.5-3.6 2.5-5.5s-.9-4-2.5-5.5l-2.4-2.5h-78.2l-2.4 2.5zM400 268v12h-16.1l.5-3.3c.8-4.3 2.6-18.6 2.6-19.8 0-.5 2.9-.9 6.5-.9h6.5v12zM290.5 242.5c-1.6 1.6-2.5 3.5-2.5 5.7 0 2.7 1.5 4.7 10.3 13.5s10.8 10.3 13.5 10.3c4.4 0 8.2-3.8 8.2-8.2 0-2.7-1.5-4.7-10.3-13.5S298.9 240 296.2 240c-2.2 0-4.1.9-5.7 2.5zM282.5 282.5c-1.6 1.5-2.5 3.6-2.5 5.5s.9 4 2.5 5.5c2.2 2.3 3.2 2.5 12 2.5h9.5v59.1l2.5 2.4c4.2 4.3 7 3.4 21.9-6.5 7.5-5 14-9.9 14.6-11 2.7-5.1-1.1-12-6.7-12-1.5 0-5.6 1.8-9.1 4-3.4 2.2-6.5 4-6.7 4-.3 0-.5-11.5-.5-25.5v-25.6l-2.5-2.4c-2.3-2.4-2.8-2.5-17.5-2.5s-15.2.1-17.5 2.5zM90.5 290.5l-2.5 2.4v70.2l2.5 2.5c2.5 2.5 2.8 2.5 15.9 2.2 12.8-.3 13.5-.4 18.2-3.3 3-1.9 6-4.9 7.9-8 2.7-4.3 3-5.7 3-12.4-.1-8.4-1.4-11.8-6.6-17-4.8-4.8-8.7-6.4-17.1-6.9l-7.8-.5v-13.4c0-12.9-.1-13.5-2.5-15.8-1.5-1.6-3.6-2.5-5.5-2.5s-4 .9-5.5 2.5zm26.6 48.4c1.6 1.6 2.9 3.9 2.9 5.1 0 1.2-1.3 3.5-2.9 5.1-2.5 2.4-3.7 2.9-8 2.9H104v-16h5.1c4.3 0 5.5.5 8 2.9zM354.5 314.5l-2.5 2.4v54.2l2.5 2.4c1.5 1.6 3.6 2.5 5.5 2.5 5.1 0 8-3.8 8-10.5V360h48v5.5c0 4.6.4 6 2.5 8 3.2 3.3 7.8 3.3 11 0l2.5-2.4v-54.2l-2.5-2.4-2.4-2.5h-70.2l-2.4 2.5zM416 336v8h-48v-16h48v8zM182.7 314.3c-5.3 1.7-10.1 5.9-12.6 11-1.7 3.6-2.1 6.2-2.1 15.3 0 11.6 1.4 16.4 5.9 21.1 9.3 9.7 26.7 7.6 32.7-3.9 1.9-3.7 1.8-6.1-.7-9.2-3-3.8-8.5-3.6-12.4.4-6 6.2-9.5 2.9-9.5-8.8 0-7.1.3-8.3 2.1-9.6 2.5-1.7 4.6-1.2 7.7 2 3.3 3.5 6.8 4.1 10 1.7 4.2-3.1 5.1-6.8 2.5-11.1-4.2-7.4-15.3-11.6-23.6-8.9z"/></svg>